<?xml version="1.0" standalone="no"?>
<!DOCTYPE svg PUBLIC "-//W3C//DTD SVG 20010904//EN"
 "http://www.w3.org/TR/2001/REC-SVG-20010904/DTD/svg10.dtd">
<svg version="1.0" xmlns="http://www.w3.org/2000/svg"
 width="260.000000pt" height="260.000000pt" viewBox="0 0 260.000000 260.000000"
 preserveAspectRatio="xMidYMid meet">
<metadata>
Created by potrace 1.11, written by Peter Selinger 2001-2013
</metadata>
<g transform="translate(0.000000,260.000000) scale(0.100000,-0.100000)"
fill="#000000" stroke="none">
<path d="M1394 2424 c-354 -58 -644 -325 -734 -675 -23 -89 -40 -322 -24 -332
5 -3 8 25 8 61 -5 268 172 540 430 658 225 103 513 77 718 -64 100 -69 196
-183 249 -295 37 -81 76 -123 127 -137 51 -14 76 -13 119 5 48 20 71 41 95 89
27 53 20 114 -21 196 -182 360 -572 559 -967 494z"/>
<path d="M425 1975 c-5 -2 -22 -6 -37 -9 -74 -16 -124 -101 -158 -267 -115
-564 315 -1091 890 -1091 295 0 532 116 730 357 14 17 -4 1 -40 -34 -119 -117
-256 -190 -410 -216 -56 -10 -200 -7 -260 4 -128 26 -261 95 -362 189 -207
193 -281 494 -189 774 36 111 36 160 -1 214 -33 47 -122 91 -163 79z"/>
<path d="M1961 1744 c97 -103 155 -203 190 -331 28 -100 30 -268 5 -362 -57
-215 -196 -387 -388 -483 -119 -59 -190 -73 -348 -72 -101 1 -126 5 -208 33
-114 38 -161 39 -218 6 -120 -70 -109 -247 18 -309 103 -50 250 -76 393 -70
274 11 538 153 701 379 56 76 121 221 145 321 27 112 30 305 6 406 -30 123
-95 269 -154 343 -58 73 -103 121 -146 156 l-52 43 56 -60z"/>
</g>
</svg>
